<?xml version="1.0" encoding="utf-8"?>
<!-- Generator: Adobe Illustrator 23.0.1, SVG Export Plug-In . SVG Version: 6.00 Build 0)  -->
<svg version="1.1" id="Calque_1" xmlns="http://www.w3.org/2000/svg" xmlns:xlink="http://www.w3.org/1999/xlink" x="0px" y="0px"
	 viewBox="0 0 141.73 141.73" style="enable-background:new 0 0 141.73 141.73;" xml:space="preserve">
<style type="text/css">
	.st0{fill:#257332;}
</style>
<g id="XMLID_58_">
	<circle id="XMLID_63_" class="st0" cx="74.93" cy="55" r="6.02"/>
	<path id="XMLID_62_" class="st0" d="M83.7,90.01c0.04,0.24-0.27,0.36-0.41,0.16c-1.16-1.8-3.65-6.5-3.65-13.74
		c0-11.01,9-16.87,11.79-22.65c2.34-4.83,1.79-5.77,2.15-6.16c0.46-0.5,4.3,7.04,4.35,14.62s-6.75,14.23-9.15,18.1
		c-1.4,2.25-3.02,6.34-3.89,9.42c-0.07,0.24-0.41,0.22-0.45-0.02c-0.62-3.51-1.95-15.95,7.17-27.89
		C91.63,61.85,80.55,71.25,83.7,90.01z"/>
	<path id="XMLID_61_" class="st0" d="M47.89,42.66c0,0-4.55,7.34-3.03,17.22s7.46,14.61,8.79,15.89s5.21,3.76,8.25,4.18
		c3.03,0.42,6.97,1.58,7.88,7.03s-1.82,10.79-1.82,10.79s2.37-0.97,3.27-9.4c0.99-9.22-2.32-10.45-5.82-12.67
		c-2.7-1.72-10.92-4-13.46-10.85c0,0,4.79,5.58,12.31,8.61c7.52,3.03,8.31,7.28,8.49,8.31c0.18,1.03,0.73,7.94-1.03,12.07
		c0,0-0.24,1.03-0.06,1.33c0.18,0.3,3.46-4.73,4.79-12.07c1.33-7.34-5.15-16.55-10.19-19.16s-14.8-4.79-17.52-12.73
		C47.37,45.97,47.89,42.66,47.89,42.66z"/>
	<path id="XMLID_60_" class="st0" d="M72.23,36.28c0,0-23.75-8.33-33.77,12.7c-10.04,21.07,23.28,49.46,46.2,63.87
		c0.34,0.91-31.01-10.3-51-29.09c-19.44-18.27-14.48-34.3-7.96-42.65S45.29,21.55,72.23,36.28z"/>
	<path id="XMLID_59_" class="st0" d="M82.21,41.3c0,0,24.91-7.2,30.41,13.7c3.23,12.3-16.49,33.3-34.68,47.48
		c12.77-5.33,23.35-10.97,34.88-21.81c12.89-12.12,14.62-21.57,10.72-33.09C119.01,34.21,102.56,31.05,82.21,41.3z"/>
</g>
</svg>
